<svg xmlns="http://www.w3.org/2000/svg" width="114.757" height="794.566" viewBox="0 0 114.757 794.566">
  <path id="ADMIN_LOGIN" data-name="ADMIN LOGIN" d="M41.712,56.979V25.446L25.945,19.758V1l81.328,31.533v18.86L25.945,82.924V62.667Zm15.767-5.588,28.34-10.178L57.478,31.034Zm49.794,39.716V122.64q0,13.272-5.139,23.151t-14.37,15.168q-9.23,5.289-21.205,5.289t-21.205-5.289q-9.23-5.289-14.32-15.168T25.945,122.64V91.107ZM42.011,122.939q0,11.775,6.436,18.461t18.112,6.686q11.675,0,18.162-6.686t6.486-18.461V109.268h-49.2Zm65.262,54.185v14.469l-45.5,28.041,45.5,28.041v14.469H25.945V243.983H70.55l-31.234-18.86V214.146l31.234-18.86H25.945V177.125Zm0,117.551H25.945V276.514h81.328Zm0,14.37v15.168l-48.9,40.614h49.894v18.161H26.943V367.82l48.9-40.614H25.945V309.045Zm0,134.415H42.011v40.614H25.945V425.3h81.328ZM23.949,531.873q0-12.474,5.538-22.5a43.233,43.233,0,0,1,3.031-4.743,40.4,40.4,0,0,1,3.555-4.2,39.871,39.871,0,0,1,4.079-3.658,41.618,41.618,0,0,1,4.6-3.115q9.729-5.688,21.9-5.688t21.9,5.688q9.729,5.688,15.268,15.717t5.538,22.5q0,12.474-5.538,22.5T88.562,570.092q-9.729,5.688-21.9,5.688t-21.9-5.688a41.623,41.623,0,0,1-4.6-3.115,39.874,39.874,0,0,1-4.079-3.658,40.4,40.4,0,0,1-3.555-4.2,43.234,43.234,0,0,1-3.031-4.743Q23.949,544.346,23.949,531.873Zm16.365,0q0,7.285,3.393,13.172t9.43,9.23q6.037,3.343,13.521,3.343,7.584,0,13.571-3.343t9.38-9.23Q93,539.157,93,531.873T89.61,518.7q-3.393-5.887-9.38-9.23t-13.571-3.343q-7.484,0-13.521,3.343t-9.43,9.23Q40.315,524.588,40.315,531.873Zm69.054,94.6q0,10.378-3.592,18.91T96,659.652q-6.187,5.738-13.871,8.133V647.827q4.69-2.694,7.634-8.233T92.7,626.871q0-7.285-3.343-13.172t-9.28-9.23q-5.937-3.343-13.422-3.343t-13.521,3.343q-6.037,3.343-9.43,9.23t-3.393,13.172q0,6.087,2.2,11.076t5.838,8.133q3.642,3.143,7.734,4.141V625.375H71.449v44.206h-4.79q-12.174,0-21.9-5.638a42.247,42.247,0,0,1-4.6-3.081,40.034,40.034,0,0,1-7.634-7.734,42.579,42.579,0,0,1-3.031-4.653q-5.538-9.829-5.538-22,0-12.374,5.538-22.3a42.783,42.783,0,0,1,3.031-4.7,39.835,39.835,0,0,1,7.634-7.784,41.708,41.708,0,0,1,4.6-3.087q9.729-5.638,21.9-5.638t21.9,5.638q9.729,5.638,15.268,15.567T109.368,626.472Zm-2.1,72.047H25.945V680.358h81.328Zm0,14.37v15.168l-48.9,40.614h49.894v18.161H26.943V771.665l48.9-40.614H25.945V712.889Z" opacity="0.11"/>
</svg>
