<svg xmlns="http://www.w3.org/2000/svg" width="114.757" height="938.012" viewBox="0 0 114.757 938.012">
  <path id="adminstrator" d="M41.712,56.979V25.446L25.945,19.758V1l81.328,31.533v18.86L25.945,82.924V62.667Zm15.767-5.588,28.34-10.178L57.478,31.034Zm49.794,39.716V122.64q0,13.272-5.139,23.151t-14.37,15.168q-9.23,5.289-21.205,5.289t-21.205-5.289q-9.23-5.289-14.32-15.168T25.945,122.64V91.107ZM42.011,122.939q0,11.775,6.436,18.461t18.112,6.686q11.675,0,18.162-6.686t6.486-18.461V109.268h-49.2Zm65.262,54.185v14.469l-45.5,28.041,45.5,28.041v14.469H25.945V243.983H70.55l-31.234-18.86V214.146l31.234-18.86H25.945V177.125Zm0,117.551H25.945V276.514h81.328Zm0,14.37v15.168l-48.9,40.614h49.894v18.161H26.943V367.82l48.9-40.614H25.945V309.045Zm2,119.946q0,8.981-3.393,16.266t-9.43,11.625q-6.037,4.341-13.721,4.74v-18.76q5.389-.8,8.382-4.69T94.1,427.793q0-6.187-2.245-9.679t-6.037-3.493q-2.994,0-4.89,2.2t-3.343,6.736q-1.447,4.54-3.243,13.222-2.794,13.471-9.23,19.309T49,461.921q-7.584,0-13.272-4.341t-8.731-11.825q-3.044-7.484-3.044-16.665,0-9.979,3.443-17.912t9.829-12.573q6.386-4.64,14.968-5.039v18.66q-5.888.8-9.43,5.638t-3.542,12.523q0,5.588,2.495,9.23t6.486,3.642q3.193,0,5.289-1.946t3.592-6.187q1.5-4.241,2.894-11.825,2.594-13.671,8.682-20.457t17.164-6.786q7.185,0,12.474,4.341t8.133,11.825Q109.268,419.71,109.268,428.991ZM91.207,537.96V511.516H25.945V493.354H91.207V466.91h16.066V537.96ZM25.945,596.137,51.591,580.37V565.9H25.945V547.739h81.328V580.47q0,10.178-3.443,17.563T94.1,609.309Q87.814,613.2,79.432,613.2t-14.619-3.842q-6.237-3.842-9.63-11.027l-29.238,18.86ZM67.657,565.9v13.771q0,7.285,3.044,11.326t8.731,4.041q5.688,0,8.731-4.041t3.044-11.326V565.9ZM41.712,676.367V644.833l-15.767-5.688v-18.76l81.328,31.533v18.86L25.945,702.312V682.054Zm15.767-5.588L85.818,660.6l-28.34-10.178Zm33.729,94.4V738.734H25.945V720.573H91.207V694.129h16.066v71.049Zm-67.257,46.4q0-12.474,5.538-22.5a43.239,43.239,0,0,1,3.031-4.743,40.4,40.4,0,0,1,3.555-4.2,39.86,39.86,0,0,1,4.079-3.658,41.615,41.615,0,0,1,4.6-3.115q9.729-5.688,21.9-5.688t21.9,5.688q9.729,5.688,15.268,15.717t5.538,22.5q0,12.474-5.538,22.5T88.562,849.8q-9.729,5.688-21.9,5.688t-21.9-5.688a41.615,41.615,0,0,1-4.6-3.115,39.86,39.86,0,0,1-4.079-3.658,40.4,40.4,0,0,1-3.555-4.2,43.227,43.227,0,0,1-3.031-4.743Q23.949,824.054,23.949,811.58Zm16.365,0q0,7.284,3.393,13.172t9.43,9.23q6.037,3.343,13.521,3.343,7.584,0,13.571-3.343t9.38-9.23Q93,818.865,93,811.58T89.61,798.408q-3.393-5.888-9.38-9.23t-13.571-3.343q-7.484,0-13.521,3.343t-9.43,9.23Q40.315,804.3,40.315,811.58ZM25.945,914.661l25.646-15.767V884.426H25.945V866.264h81.328v32.731q0,10.178-3.443,17.563T94.1,927.834q-6.287,3.892-14.669,3.892t-14.619-3.842q-6.237-3.842-9.63-11.027l-29.238,18.86Zm41.712-30.236V898.2q0,7.285,3.044,11.326t8.731,4.041q5.688,0,8.731-4.041T91.207,898.2V884.426Z" opacity="0.11"/>
</svg>
