<svg xmlns="http://www.w3.org/2000/svg" width="20" height="22" viewBox="0 0 20 22">
  <g id="그룹_97" data-name="그룹 97" transform="translate(-227.797 -152.289)" opacity="0.68">
    <path id="패스_45" data-name="패스 45" d="M244.8,161.562h-1v-3.273a6,6,0,0,0-12,0v3.273h-1a3,3,0,0,0-3,3v6.727a3,3,0,0,0,3,3h14a3,3,0,0,0,3-3v-6.727A3,3,0,0,0,244.8,161.562Zm-11-3.273a4,4,0,0,1,8,0v3.273h-8Z"/>
    <g id="그룹_96" data-name="그룹 96">
      <path id="패스_46" data-name="패스 46" d="M236.134,171.158l-2.039-4.267a.5.5,0,1,1,.9-.432l1.461,3.059,4.953-4.478a.5.5,0,1,1,.67.742Z" fill="#fff"/>
    </g>
  </g>
</svg>
