<?xml version="1.0" encoding="utf-8"?>
<!-- Generator: Adobe Illustrator 25.2.3, SVG Export Plug-In . SVG Version: 6.00 Build 0)  -->
<svg version="1.1" id="Layer_1" xmlns="http://www.w3.org/2000/svg" xmlns:xlink="http://www.w3.org/1999/xlink" x="0px" y="0px"
	 viewBox="0 0 67.8 81.1" style="enable-background:new 0 0 67.8 81.1;" xml:space="preserve">
<style type="text/css">
	.st0{fill:#D7000F;}
	.st1{enable-background:new    ;}
	.st2{fill:#FFFFFF;}
</style>
<g id="그룹_31" transform="translate(1217.793 -410.836)">
	<path id="패스_9" class="st0" d="M-1177.1,424.4l0.5-0.5l4.8-5.4c0.4,0.3,0.9,0.5,1.4,0.5c1.2,0,2.2-1,2.2-2.2c0,0,0,0,0,0
		c0-1.2-1-2.2-2.2-2.2c0,0,0,0,0,0c-1.2,0-2.2,1-2.2,2.2c0,0,0,0,0,0c0,0.5,0.2,1,0.5,1.4l-5.4,4.8l-1.2,1.1
		c-1.7-0.3-3.4-0.4-5.1-0.4c-0.5,0-1,0-1.5,0l-5.5-4.8l-4.9-4.3c0.4-0.4,0.7-1,0.7-1.6c0-1.2-1-2.2-2.2-2.2c0,0,0,0,0,0
		c-1.2,0-2.2,1-2.2,2.2c0,0,0,0,0,0c0,1.2,1,2.2,2.2,2.2c0.4,0,0.8-0.1,1.2-0.3l4.4,5l3.7,4.2c-17,2.1-29.8,16.5-29.8,33.7
		c0,8.6,3.3,16.9,9.2,23.2l0,0c0,0-0.2,3.2-5.7,6.5c0,0-2.6,1.5-1.5,3c0,0,0.9,1.3,4.4,1.6c0,0,8.4,0.7,14.8-2.8
		c4,1.6,8.4,2.5,12.7,2.5c18.7,0,33.9-15.2,33.9-33.9C-1150,441.5-1161.3,427.6-1177.1,424.4z"/>
	<g class="st1">
		<path class="st2" d="M-1206.6,452.7v9.2h5.7v2.3h-8.2v-11.4H-1206.6z"/>
		<path class="st2" d="M-1197.4,463.6c-0.9-0.5-1.7-1.2-2.2-2.1c-0.5-0.9-0.8-1.9-0.8-3.1s0.3-2.2,0.8-3.1c0.5-0.9,1.3-1.6,2.2-2.1
			s2-0.8,3.2-0.8c1.2,0,2.2,0.3,3.2,0.8s1.7,1.2,2.2,2.1c0.5,0.9,0.8,1.9,0.8,3.1s-0.3,2.2-0.8,3.1c-0.5,0.9-1.3,1.6-2.2,2.1
			c-0.9,0.5-2,0.8-3.2,0.8C-1195.4,464.4-1196.4,464.1-1197.4,463.6z M-1192.4,461.6c0.6-0.3,1-0.8,1.3-1.3c0.3-0.6,0.5-1.2,0.5-1.9
			c0-0.7-0.2-1.3-0.5-1.9c-0.3-0.6-0.7-1-1.3-1.3c-0.6-0.3-1.2-0.5-1.8-0.5c-0.7,0-1.3,0.2-1.8,0.5s-1,0.8-1.3,1.3
			c-0.3,0.6-0.5,1.2-0.5,1.9c0,0.7,0.2,1.3,0.5,1.9c0.3,0.6,0.7,1,1.3,1.3c0.6,0.3,1.2,0.5,1.8,0.5
			C-1193.5,462.1-1192.9,461.9-1192.4,461.6z"/>
		<path class="st2" d="M-1178.3,452.9c0.8,0.3,1.5,0.8,2,1.4c0.5,0.6,0.9,1.2,1.1,1.9h-2.8c-0.3-0.4-0.6-0.8-1.2-1.1
			c-0.5-0.3-1.1-0.4-1.8-0.4c-0.7,0-1.3,0.2-1.8,0.5c-0.6,0.3-1,0.7-1.3,1.3c-0.3,0.6-0.5,1.2-0.5,1.9s0.2,1.3,0.5,1.9
			c0.3,0.6,0.7,1,1.3,1.3c0.6,0.3,1.2,0.5,1.8,0.5c0.6,0,1.1-0.1,1.6-0.3c0.5-0.2,0.8-0.5,1.1-0.8s0.5-0.7,0.6-1.1h-3.5v-2.2h6.2
			v0.7c0,1.1-0.3,2.2-0.8,3.1s-1.3,1.6-2.2,2.1c-0.9,0.5-1.9,0.8-3.1,0.8c-1.2,0-2.2-0.3-3.1-0.8c-0.9-0.5-1.7-1.2-2.2-2.1
			s-0.8-1.9-0.8-3.1s0.3-2.2,0.8-3.1c0.5-0.9,1.3-1.6,2.2-2.1s2-0.8,3.1-0.8C-1180,452.4-1179.1,452.6-1178.3,452.9z"/>
		<path class="st2" d="M-1170.8,452.7v11.4h-2.5v-11.4H-1170.8z"/>
		<path class="st2" d="M-1168.8,452.7h2.1l5.7,6.9v-7h2.5V464h-2.1l-5.7-6.9v7h-2.5V452.7z"/>
	</g>
</g>
<text transform="matrix(1 0 0 1 -69.6377 47.4849)" class="st2" style="font-family:'GmarketSansTTFBold'; font-size:14px;">LOGIN</text>
</svg>
