<svg xmlns="http://www.w3.org/2000/svg" width="67.844" height="81.102" viewBox="0 0 67.844 81.102">
  <g id="그룹_31" data-name="그룹 31" transform="translate(1217.793 -410.836)">
    <path id="패스_9" data-name="패스 9" d="M-1172.981,429.7l.455-.518,4.766-5.421a2.136,2.136,0,0,0,1.415.542,2.151,2.151,0,0,0,2.152-2.151,2.151,2.151,0,0,0-2.152-2.151,2.151,2.151,0,0,0-2.152,2.151,2.132,2.132,0,0,0,.542,1.414l-5.423,4.765-1.231,1.082a34.186,34.186,0,0,0-5.106-.383c-.5,0-.99.016-1.482.038l-5.489-4.822-4.95-4.348a2.137,2.137,0,0,0,.7-1.581,2.151,2.151,0,0,0-2.152-2.151,2.151,2.151,0,0,0-2.152,2.151,2.152,2.152,0,0,0,2.152,2.151,2.139,2.139,0,0,0,1.168-.349l4.377,4.979,3.687,4.193a33.921,33.921,0,0,0-29.785,33.662,33.794,33.794,0,0,0,9.214,23.229l-.006.006s-.2,3.242-5.7,6.462c0,0-2.571,1.465-1.49,3,0,0,.9,1.333,4.4,1.557,0,0,8.4.713,14.765-2.816a33.813,33.813,0,0,0,12.738,2.482,33.922,33.922,0,0,0,33.922-33.922A33.932,33.932,0,0,0-1172.981,429.7Z" transform="translate(-4.156 -5.324)" fill="#d7000f"/>
    <text id="LOGIN" transform="translate(-1183.793 462.836)" fill="#fff" font-size="14" font-family="GmarketSansTTFBold, Gmarket Sans TTF"><tspan x="-26.369" y="0">LOGIN</tspan></text>
  </g>
</svg>
