<svg xmlns="http://www.w3.org/2000/svg" width="129.8" height="160" viewBox="0 0 129.8 160">
  <g id="logo_red" transform="translate(-60.2 15.8)">
    <path id="패스_43" data-name="패스 43" d="M152.2,65h5.7L155,57Z" fill="#d7000f"/>
    <path id="패스_44" data-name="패스 44" d="M68.5,137.8h5a3.465,3.465,0,0,1-.8,1.6,4.813,4.813,0,0,1-1.6,1.2,5.381,5.381,0,0,1-2.2.4,4.953,4.953,0,0,1-2.7-.7,5.752,5.752,0,0,1-1.9-1.9,6.007,6.007,0,0,1-.7-2.7,5.211,5.211,0,0,1,5.3-5.3,5.536,5.536,0,0,1,2.6.6,4.2,4.2,0,0,1,1.7,1.5h4a7.847,7.847,0,0,0-1.6-2.8,8.805,8.805,0,0,0-2.9-2,9.2,9.2,0,0,0-3.8-.7,9.364,9.364,0,0,0-4.5,1.1,7.709,7.709,0,0,0-3.1,3.1,8.235,8.235,0,0,0-1.1,4.4,8.354,8.354,0,0,0,4.2,7.5,9.364,9.364,0,0,0,4.5,1.1,9.257,9.257,0,0,0,4.4-1.1,7.709,7.709,0,0,0,3.1-3.1,8.235,8.235,0,0,0,1.1-4.4v-1H68.6v3.2Z" fill="#d7000f"/>
    <rect id="사각형_37" data-name="사각형 37" width="3.7" height="16.4" transform="translate(79.6 127.5)" fill="#d7000f"/>
    <path id="패스_45" data-name="패스 45" d="M94,137.8h5a3.465,3.465,0,0,1-.8,1.6,4.813,4.813,0,0,1-1.6,1.2,5.381,5.381,0,0,1-2.2.4,4.953,4.953,0,0,1-2.7-.7,5.752,5.752,0,0,1-1.9-1.9,6.007,6.007,0,0,1-.7-2.7,5.211,5.211,0,0,1,5.3-5.3,5.536,5.536,0,0,1,2.6.6,4.2,4.2,0,0,1,1.7,1.5h4a7.847,7.847,0,0,0-1.6-2.8,8.805,8.805,0,0,0-2.9-2,9.2,9.2,0,0,0-3.8-.7,9.364,9.364,0,0,0-4.5,1.1,7.709,7.709,0,0,0-3.1,3.1,8.235,8.235,0,0,0-1.1,4.4,8.354,8.354,0,0,0,4.2,7.5,9.364,9.364,0,0,0,4.5,1.1,9.257,9.257,0,0,0,4.4-1.1,7.709,7.709,0,0,0,3.1-3.1,8.235,8.235,0,0,0,1.1-4.4v-1H94Z" fill="#d7000f"/>
    <path id="패스_46" data-name="패스 46" d="M109.4,127.5,103,143.9h3.8l1.1-3.2h6.4l1.1,3.2h4.1l-6.4-16.4h-3.7Zm-.3,10,2.1-5.7,2.1,5.7Z" fill="#d7000f"/>
    <path id="패스_47" data-name="패스 47" d="M150.5,137.2h7.9V134h-7.9v-3.3h8.6v-3.2H146.9v16.4h12.4v-3.2h-8.8Z" fill="#d7000f"/>
    <path id="패스_48" data-name="패스 48" d="M165.4,137.2h7.8V134h-7.8v-3.3h8.5v-3.2H161.7v16.4h12.4v-3.2h-8.7Z" fill="#d7000f"/>
    <path id="패스_49" data-name="패스 49" d="M175.6,127.5v3.2H181v13.2h3.6V130.7H190v-3.2Z" fill="#d7000f"/>
    <path id="패스_50" data-name="패스 50" d="M135.4,136.7l-5.7-9.2h-2.9v16.4h3.7v-9l3.8,6.3h2.2l3.8-6.3v9H144V127.5h-2.9Z" fill="#d7000f"/>
    <path id="패스_51" data-name="패스 51" d="M176.4,81.9A56.016,56.016,0,0,0,144.7,9.3,51.343,51.343,0,0,0,136,6.7l.8-.9,7.9-9a3.337,3.337,0,0,0,2.3.9,3.585,3.585,0,0,0,3.6-3.6A3.585,3.585,0,0,0,147-9.5a3.585,3.585,0,0,0-3.6,3.6,3.583,3.583,0,0,0,.9,2.4l-9,7.9-2,1.8a59.681,59.681,0,0,0-8.5-.6h-2.5l-9.1-8L105-9.6a3.733,3.733,0,0,0,1.2-2.6,3.565,3.565,0,0,0-3.5-3.6,3.565,3.565,0,0,0-3.6,3.5,3.565,3.565,0,0,0,3.5,3.6,3.606,3.606,0,0,0,2-.6L112-.9,118.1,6a56.1,56.1,0,0,0-34.2,94.1s-.3,5.4-9.4,10.7c0,0-4.3,2.4-2.5,4.9,0,0,1.5,2.2,7.3,2.6,0,0,13.9,1.2,24.4-4.7A56.09,56.09,0,0,0,176.4,81.9ZM108,62.4a12.6,12.6,0,0,1-1.6,6.1,11.562,11.562,0,0,1-4.2,4.3A12.114,12.114,0,0,1,96,74.3a13.608,13.608,0,0,1-6.3-1.5,12.085,12.085,0,0,1-4.4-4.3,12.8,12.8,0,0,1,0-12.3,10.728,10.728,0,0,1,4.4-4.3A11.618,11.618,0,0,1,96,50.3a13.859,13.859,0,0,1,5.3,1,12.283,12.283,0,0,1,4,2.7,11.829,11.829,0,0,1,2.3,3.9H102a4.71,4.71,0,0,0-2.3-2.1,8.157,8.157,0,0,0-7.3.1,6.506,6.506,0,0,0-2.6,2.6,7.35,7.35,0,0,0-.9,3.8,8.489,8.489,0,0,0,.9,3.8,7.464,7.464,0,0,0,2.6,2.7,7.873,7.873,0,0,0,3.7,1,8.149,8.149,0,0,0,3.1-.6,6.342,6.342,0,0,0,2.3-1.6,4.768,4.768,0,0,0,1.2-2.2h-7V61.2H108Zm8.1,11.4H111V51h5.1Zm27.4-11.4a12.6,12.6,0,0,1-1.6,6.1,10.728,10.728,0,0,1-4.4,4.3,12.114,12.114,0,0,1-6.2,1.5,13.908,13.908,0,0,1-6.3-1.5,12.085,12.085,0,0,1-4.4-4.3,12.8,12.8,0,0,1,0-12.3,12.516,12.516,0,0,1,10.8-5.9,13.859,13.859,0,0,1,5.3,1,12.283,12.283,0,0,1,4,2.7,9.625,9.625,0,0,1,2.3,3.9h-5.6a6.111,6.111,0,0,0-2.4-2.1,8.157,8.157,0,0,0-7.3.1,6.506,6.506,0,0,0-2.6,2.6,7.35,7.35,0,0,0-.9,3.8,8.489,8.489,0,0,0,.9,3.8,7.464,7.464,0,0,0,2.6,2.7,7.873,7.873,0,0,0,3.7,1,8.149,8.149,0,0,0,3.1-.6,6.342,6.342,0,0,0,2.3-1.6,4.767,4.767,0,0,0,1.2-2.2h-6.9V61.1h12.4Zm15.8,7h-8.8l-1.6,4.4h-5.3l8.9-22.9h5.3l8.9,22.9H161Z" fill="#d7000f"/>
  </g>
</svg>
