<svg xmlns="http://www.w3.org/2000/svg" width="130" height="160.173" viewBox="0 0 130 160.173">
  <g id="그룹_88" data-name="그룹 88" transform="translate(-59.954 15.864)">
    <path id="패스_34" data-name="패스 34" d="M152.158,64.977h5.721l-2.852-7.962Z" fill="#fff"/>
    <path id="패스_35" data-name="패스 35" d="M68.509,137.828h5.012a3.746,3.746,0,0,1-.835,1.56,4.522,4.522,0,0,1-1.64,1.178,5.5,5.5,0,0,1-2.235.443,5.237,5.237,0,0,1-2.657-.684,4.874,4.874,0,0,1-1.862-1.9,5.527,5.527,0,0,1-.675-2.727,5.42,5.42,0,0,1,.675-2.708,4.845,4.845,0,0,1,1.862-1.871,5.27,5.27,0,0,1,2.657-.674,5.38,5.38,0,0,1,2.566.594,4.025,4.025,0,0,1,1.661,1.539h4.025a7.241,7.241,0,0,0-1.64-2.8,8.183,8.183,0,0,0-2.878-1.972,9.739,9.739,0,0,0-3.814-.725,9.074,9.074,0,0,0-4.5,1.117,8.131,8.131,0,0,0-3.14,3.08,9.143,9.143,0,0,0,0,8.835,8.131,8.131,0,0,0,3.14,3.08,9.074,9.074,0,0,0,4.5,1.117,8.88,8.88,0,0,0,4.438-1.117,8.175,8.175,0,0,0,3.12-3.08,8.644,8.644,0,0,0,1.137-4.417v-.966H68.509Z" fill="#fff"/>
    <rect id="사각형_35" data-name="사각형 35" width="3.664" height="16.405" transform="translate(79.599 127.502)" fill="#fff"/>
    <path id="패스_36" data-name="패스 36" d="M93.98,137.828h5.011a3.735,3.735,0,0,1-.835,1.56,4.522,4.522,0,0,1-1.64,1.178,5.5,5.5,0,0,1-2.235.443,5.239,5.239,0,0,1-2.657-.684,4.881,4.881,0,0,1-1.862-1.9,5.527,5.527,0,0,1-.674-2.727,5.419,5.419,0,0,1,.674-2.708,4.852,4.852,0,0,1,1.862-1.871,5.273,5.273,0,0,1,2.657-.674,5.387,5.387,0,0,1,2.567.594,4.028,4.028,0,0,1,1.66,1.539h4.026a7.243,7.243,0,0,0-1.641-2.8,8.179,8.179,0,0,0-2.877-1.972,9.744,9.744,0,0,0-3.815-.725,9.074,9.074,0,0,0-4.5,1.117,8.138,8.138,0,0,0-3.14,3.08,9.143,9.143,0,0,0,0,8.835,8.138,8.138,0,0,0,3.14,3.08,9.074,9.074,0,0,0,4.5,1.117,8.877,8.877,0,0,0,4.438-1.117,8.175,8.175,0,0,0,3.12-3.08A8.644,8.644,0,0,0,102.9,135.7v-.966H93.98Z" fill="#fff"/>
    <path id="패스_37" data-name="패스 37" d="M109.379,127.5l-6.361,16.4H106.8l1.148-3.18h6.36l1.148,3.18h4.086l-6.361-16.4Zm-.3,10.044,2.054-5.717,2.052,5.717Z" fill="#fff"/>
    <path id="패스_38" data-name="패스 38" d="M150.542,137.2h7.831v-3.181h-7.831v-3.341h8.534V127.5h-12.2v16.4h12.38v-3.18h-8.716Z" fill="#fff"/>
    <path id="패스_39" data-name="패스 39" d="M165.377,137.2h7.831v-3.181h-7.831v-3.341h8.534V127.5h-12.2v16.4h12.38v-3.18h-8.716Z" fill="#fff"/>
    <path id="패스_40" data-name="패스 40" d="M175.623,127.5v3.241h5.334v13.164h3.664V130.743h5.334V127.5Z" fill="#fff"/>
    <path id="패스_41" data-name="패스 41" d="M135.406,136.682l-5.657-9.18H126.83v16.4h3.664v-9l3.8,6.3h2.214l3.806-6.3v9h3.663V127.5h-2.919Z" fill="#fff"/>
    <path id="패스_42" data-name="패스 42" d="M176.4,81.877A56.045,56.045,0,0,0,135.986,6.635l.758-.858,7.88-8.968a3.479,3.479,0,0,0,2.341.907,3.577,3.577,0,0,0,3.6-3.557,3.578,3.578,0,0,0-3.558-3.6,3.578,3.578,0,0,0-3.6,3.557,3.578,3.578,0,0,0,.887,2.378l-8.969,7.88L133.3,6.156a57.414,57.414,0,0,0-8.457-.626h-2.457l-9.067-7.979-8.242-7.2a3.511,3.511,0,0,0,1.17-2.605,3.577,3.577,0,0,0-3.548-3.606,3.577,3.577,0,0,0-3.606,3.548A3.577,3.577,0,0,0,102.64-8.71a3.575,3.575,0,0,0,1.958-.564l7.385,8.358,6.1,6.941a56.05,56.05,0,0,0-34.125,94.049s-.313,5.358-9.43,10.683c0,0-4.253,2.423-2.456,4.945,0,0,1.484,2.209,7.27,2.589,0,0,13.9,1.17,24.431-4.666A56.05,56.05,0,0,0,176.4,81.877ZM107.961,62.4a12.037,12.037,0,0,1-1.649,6.149,11.365,11.365,0,0,1-4.22,4.3,12.381,12.381,0,0,1-6.182,1.549,12.668,12.668,0,0,1-6.281-1.549,11.3,11.3,0,0,1-4.369-4.3,12.776,12.776,0,0,1,0-12.315,11.371,11.371,0,0,1,4.369-4.286,12.674,12.674,0,0,1,6.281-1.648,13.458,13.458,0,0,1,5.308,1.022,11.678,11.678,0,0,1,4.023,2.736,10.25,10.25,0,0,1,2.275,3.907h-5.6A5.61,5.61,0,0,0,99.6,55.827a7.977,7.977,0,0,0-7.287.116,6.709,6.709,0,0,0-2.605,2.6,7.558,7.558,0,0,0-.939,3.775,7.642,7.642,0,0,0,.939,3.792,6.729,6.729,0,0,0,2.605,2.654,7.228,7.228,0,0,0,3.709.956,7.53,7.53,0,0,0,3.1-.61,6.252,6.252,0,0,0,2.292-1.648,5.224,5.224,0,0,0,1.17-2.176H95.6V61.053h12.43ZM116.1,73.846h-5.11V50.98h5.11ZM143.487,62.4a12.037,12.037,0,0,1-1.649,6.149,11.539,11.539,0,0,1-4.352,4.3,12.4,12.4,0,0,1-6.2,1.549,12.664,12.664,0,0,1-6.265-1.549,11.3,11.3,0,0,1-4.369-4.3,12.666,12.666,0,0,1,0-12.315,11.379,11.379,0,0,1,4.517-4.286,12.667,12.667,0,0,1,6.265-1.648,13.559,13.559,0,0,1,5.325,1.022,11.542,11.542,0,0,1,4.006,2.736,10.081,10.081,0,0,1,2.291,3.907h-5.6a5.651,5.651,0,0,0-2.39-2.06,7.944,7.944,0,0,0-7.27.115,6.708,6.708,0,0,0-2.622,2.6,7.552,7.552,0,0,0-.939,3.775,7.655,7.655,0,0,0,.939,3.792,6.742,6.742,0,0,0,2.605,2.654,7.178,7.178,0,0,0,3.693.956,7.682,7.682,0,0,0,3.116-.61,6.259,6.259,0,0,0,2.291-1.649,5.22,5.22,0,0,0,1.171-2.176h-6.924V61.053h12.43Zm15.859,7.006h-8.754l-1.649,4.435h-5.275l8.869-22.866h5.292L166.7,73.846h-5.7Z" fill="#fff"/>
  </g>
</svg>
