<svg xmlns="http://www.w3.org/2000/svg" xmlns:xlink="http://www.w3.org/1999/xlink" width="1920" height="1080" viewBox="0 0 1920 1080">
  <defs>
    <filter id="타원_3" x="-563.5" y="-549.5" width="1207" height="2189" filterUnits="userSpaceOnUse">
      <feOffset dx="5" dy="5" input="SourceAlpha"/>
      <feGaussianBlur stdDeviation="2.5" result="blur"/>
      <feFlood/>
      <feComposite operator="in" in2="blur"/>
      <feComposite in="SourceGraphic"/>
    </filter>
    <filter id="타원_2" x="-623.5" y="-549.5" width="1207" height="2189" filterUnits="userSpaceOnUse">
      <feOffset dx="5" dy="5" input="SourceAlpha"/>
      <feGaussianBlur stdDeviation="2.5" result="blur-2"/>
      <feFlood/>
      <feComposite operator="in" in2="blur-2"/>
      <feComposite in="SourceGraphic"/>
    </filter>
    <filter id="타원_1" x="-683.5" y="-549.5" width="1207" height="2189" filterUnits="userSpaceOnUse">
      <feOffset dx="5" dy="5" input="SourceAlpha"/>
      <feGaussianBlur stdDeviation="2.5" result="blur-3"/>
      <feFlood flood-opacity="0.729"/>
      <feComposite operator="in" in2="blur-3"/>
      <feComposite in="SourceGraphic"/>
    </filter>
    <clipPath id="clip-_1-1_관리자로그인_2">
      <rect width="1920" height="1080"/>
    </clipPath>
  </defs>
  <g id="_1-1_관리자로그인_2" data-name="1-1 관리자로그인 – 2" clip-path="url(#clip-_1-1_관리자로그인_2)">
    <rect width="1920" height="1080" fill="#fff"/>
    <g id="그룹_20" data-name="그룹 20" transform="translate(-4.326 -975.663)">
      <g id="그룹_19" data-name="그룹 19" transform="translate(93.63 1043.697)">
        <path id="패스_4" data-name="패스 4" d="M362.994,1267.1h4.641l-2.32-6.46Z" transform="translate(-295.352 -1201.649)" fill="#fff"/>
        <path id="패스_5" data-name="패스 5" d="M168.777,1061.851l.61-.694,6.393-7.271a2.914,2.914,0,1,0-.261-.261l-7.274,6.39-1.651,1.451a45.838,45.838,0,0,0-6.847-.514c-.667,0-1.329.022-1.989.05l-7.361-6.467-6.639-5.832a2.819,2.819,0,1,0-.375.3l5.871,6.678,4.944,5.624a45.475,45.475,0,0,0-27.59,76.3l-.009.008s-.262,4.348-7.646,8.667c0,0-3.448,1.964-2,4.026,0,0,1.207,1.788,5.9,2.088,0,0,11.262.956,19.8-3.777a45.5,45.5,0,1,0,26.116-86.764ZM146.11,1107.06a9.776,9.776,0,0,1-1.285,4.993,9.257,9.257,0,0,1-3.526,3.481,10.041,10.041,0,0,1-5.016,1.263,10.257,10.257,0,0,1-5.084-1.263,9.206,9.206,0,0,1-3.549-3.481,10.341,10.341,0,0,1,0-9.986,9.2,9.2,0,0,1,3.549-3.48,10.257,10.257,0,0,1,5.084-1.263,11,11,0,0,1,4.311.819,9.276,9.276,0,0,1,3.253,2.229,8.194,8.194,0,0,1,1.854,3.162h-4.549a4.558,4.558,0,0,0-1.877-1.74,6.092,6.092,0,0,0-2.9-.671,5.976,5.976,0,0,0-3,.762,5.479,5.479,0,0,0-2.1,2.116,6.124,6.124,0,0,0-.762,3.06,6.252,6.252,0,0,0,.762,3.082,5.51,5.51,0,0,0,2.1,2.15,5.9,5.9,0,0,0,3,.773,6.2,6.2,0,0,0,2.525-.5,5.123,5.123,0,0,0,1.854-1.331,4.227,4.227,0,0,0,.944-1.763h-5.664v-3.5H146.11Zm6.6,9.281h-4.14V1097.8h4.14Zm22.2-9.281a9.776,9.776,0,0,1-1.285,4.993,9.257,9.257,0,0,1-3.526,3.481,10.041,10.041,0,0,1-5.016,1.263,10.258,10.258,0,0,1-5.084-1.263,9.206,9.206,0,0,1-3.549-3.481,10.342,10.342,0,0,1,0-9.986,9.2,9.2,0,0,1,3.549-3.48,10.258,10.258,0,0,1,5.084-1.263,11.005,11.005,0,0,1,4.311.819,9.276,9.276,0,0,1,3.253,2.229,8.2,8.2,0,0,1,1.854,3.162h-4.55a4.557,4.557,0,0,0-1.877-1.74,6.092,6.092,0,0,0-2.9-.671,5.975,5.975,0,0,0-3,.762,5.479,5.479,0,0,0-2.1,2.116,6.124,6.124,0,0,0-.762,3.06,6.252,6.252,0,0,0,.762,3.082,5.51,5.51,0,0,0,2.1,2.15,5.9,5.9,0,0,0,3,.773,6.2,6.2,0,0,0,2.525-.5,5.122,5.122,0,0,0,1.854-1.331,4.227,4.227,0,0,0,.944-1.763h-5.664v-3.5h10.078Zm14.194,9.281-1.3-3.594h-7.188l-1.3,3.594h-4.277l7.188-18.54h4.3l7.188,18.54Z" transform="translate(-114.25 -1043.697)" fill="#fff"/>
      </g>
      <text id="GIGA_MEET" data-name="GIGA MEET" transform="translate(85.928 1171.306)" fill="#fff" font-size="15" font-family="GmarketSansTTFBold, Gmarket Sans TTF"><tspan x="0" y="0">GIGA MEET</tspan></text>
    </g>
    <g id="그룹_22" data-name="그룹 22" transform="translate(-61 -440.132)">
      <g transform="matrix(1, 0, 0, 1, 61, 440.13)" filter="url(#타원_3)">
        <ellipse id="타원_3-2" data-name="타원 3" cx="596" cy="1087" rx="596" ry="1087" transform="translate(-561 -547)" fill="#090a0a" opacity="0.5"/>
      </g>
      <g transform="matrix(1, 0, 0, 1, 61, 440.13)" filter="url(#타원_2)">
        <ellipse id="타원_2-2" data-name="타원 2" cx="596" cy="1087" rx="596" ry="1087" transform="translate(-621 -547)" fill="#090a0a" opacity="0.5"/>
      </g>
      <g transform="matrix(1, 0, 0, 1, 61, 440.13)" filter="url(#타원_1)">
        <ellipse id="타원_1-2" data-name="타원 1" cx="596" cy="1087" rx="596" ry="1087" transform="translate(-681 -547)" fill="#090a0a" opacity="0.5"/>
      </g>
    </g>
    <path id="ADMIN_LOGIN" data-name="ADMIN LOGIN" d="M41.712,56.979V25.446L25.945,19.758V1l81.328,31.533v18.86L25.945,82.924V62.667Zm15.767-5.588,28.34-10.178L57.478,31.034Zm49.794,39.716V122.64q0,13.272-5.139,23.151t-14.37,15.168q-9.23,5.289-21.205,5.289t-21.205-5.289q-9.23-5.289-14.32-15.168T25.945,122.64V91.107ZM42.011,122.939q0,11.775,6.436,18.461t18.112,6.686q11.675,0,18.162-6.686t6.486-18.461V109.268h-49.2Zm65.262,54.185v14.469l-45.5,28.041,45.5,28.041v14.469H25.945V243.983H70.55l-31.234-18.86V214.146l31.234-18.86H25.945V177.124Zm0,117.551H25.945V276.514h81.328Zm0,14.37v15.168l-48.9,40.614h49.894v18.161H26.943V367.82l48.9-40.614H25.945V309.045Zm0,134.415H42.011v40.614H25.945V425.3h81.328ZM23.949,531.873q0-12.474,5.538-22.5a43.233,43.233,0,0,1,3.031-4.743,40.4,40.4,0,0,1,3.555-4.2,39.871,39.871,0,0,1,4.079-3.658,41.618,41.618,0,0,1,4.6-3.115q9.729-5.688,21.9-5.688t21.9,5.688q9.729,5.688,15.268,15.717t5.538,22.5q0,12.474-5.538,22.5T88.562,570.092q-9.729,5.688-21.9,5.688t-21.9-5.688a41.623,41.623,0,0,1-4.6-3.115,39.881,39.881,0,0,1-4.079-3.658,40.4,40.4,0,0,1-3.555-4.2,43.234,43.234,0,0,1-3.031-4.743Q23.949,544.346,23.949,531.873Zm16.365,0q0,7.285,3.393,13.172t9.43,9.23q6.037,3.343,13.521,3.343,7.584,0,13.571-3.343t9.38-9.23Q93,539.157,93,531.873T89.61,518.7q-3.393-5.888-9.38-9.23t-13.571-3.343q-7.484,0-13.521,3.343t-9.43,9.23Q40.315,524.588,40.315,531.873Zm69.054,94.6q0,10.378-3.592,18.91T96,659.652q-6.187,5.738-13.871,8.133V647.827q4.69-2.694,7.634-8.232T92.7,626.871q0-7.285-3.343-13.172t-9.28-9.23q-5.937-3.343-13.422-3.343t-13.521,3.343q-6.037,3.343-9.43,9.23t-3.393,13.172q0,6.087,2.2,11.076t5.838,8.133q3.642,3.143,7.734,4.141V625.374H71.449v44.206h-4.79q-12.174,0-21.9-5.638a42.256,42.256,0,0,1-4.6-3.081,40.037,40.037,0,0,1-7.634-7.734,42.578,42.578,0,0,1-3.031-4.653q-5.538-9.829-5.538-22,0-12.374,5.538-22.3a42.783,42.783,0,0,1,3.031-4.7,39.83,39.83,0,0,1,7.634-7.784,41.709,41.709,0,0,1,4.6-3.087q9.729-5.638,21.9-5.638t21.9,5.638q9.729,5.638,15.268,15.567T109.368,626.472Zm-2.1,72.047H25.945V680.358h81.328Zm0,14.37v15.168l-48.9,40.614h49.894v18.161H26.943V771.664l48.9-40.614H25.945V712.889Z" transform="translate(1715.255 143)" opacity="0.11"/>
  </g>
</svg>
